# xmcd
#
# Track frame offsets:
#	300
#	21138
#	31488
#	49413
#	69438
#	99438
#	115338
#	135963
#	157863
#	177138
#	194238
#	204438
#	222513
#
# Disc length: 3195 seconds
#
# Revision: 0
# Processed by: cddbd v1.5.2PL0 Copyright (c) Steve Scherf et al.
# Submitted via: audiograbber 1.83.01
#
DISCID=b90c770d
DTITLE=Blues Before Sunrise - Mens Night - American Blues
DYEAR=2007
DGENRE=Blues
TTITLE0=Gregg Smith - Lowdown
TTITLE1=John Lee Hooker - Dimples
TTITLE2=Pepe Ahlquist and The Rolling Tumbleweed - Pocket Knifeman
TTITLE3=Pinetop Perkins - Just Keep On Drinking
TTITLE4=Gregg Smith - Young Men Don`t Get The Blues
TTITLE5=Pepe Ahlquist and The Rolling Tumbleweed - Don`t Stare At Me
TTITLE6=Pinetop Perkins - Got My Mojo Working
TTITLE7=Gregg Smith - Blues In My Blood
TTITLE8=Pepe Ahlquist and The Rolling Tumbleweed - Cicade Of Chicago
TTITLE9=Bo Diddley - Mona, I Need You Baby
TTITLE10=Memphis Slim - Litlle Lonely Girl
TTITLE11=Gregg Smith - Money Talks
TTITLE12=John Lee Hooker - Blues Before Sunrise
EXTD=
EXTT0=
EXTT1=
EXTT2=
EXTT3=
EXTT4=
EXTT5=
EXTT6=
EXTT7=
EXTT8=
EXTT9=
EXTT10=
EXTT11=
EXTT12=
PLAYORDER=
